<svg width="531" height="91" viewBox="0 0 531 91" fill="none" xmlns="http://www.w3.org/2000/svg">
<rect width="531" height="91" fill="white"/>
<rect width="531" height="91" fill="white"/>
<ellipse cx="28.5" cy="30.5" rx="13.5" ry="14.5" fill="#D9D9D9"/>
<ellipse cx="28.5" cy="30.5" rx="13.5" ry="14.5" fill="#22577A"/>
<ellipse cx="77.5" cy="30.5" rx="13.5" ry="14.5" fill="#D9D9D9"/>
<ellipse cx="77.5" cy="30.5" rx="13.5" ry="14.5" fill="#38A3A5"/>
<ellipse cx="126.5" cy="30.5" rx="13.5" ry="14.5" fill="#D9D9D9"/>
<ellipse cx="126.5" cy="30.5" rx="13.5" ry="14.5" fill="#57CC99"/>
<ellipse cx="175.5" cy="30.5" rx="13.5" ry="14.5" fill="#D9D9D9"/>
<ellipse cx="175.5" cy="30.5" rx="13.5" ry="14.5" fill="#80ED99"/>
<ellipse cx="224.5" cy="30.5" rx="13.5" ry="14.5" fill="#D9D9D9"/>
<ellipse cx="224.5" cy="30.5" rx="13.5" ry="14.5" fill="#C7F9CC"/>
<ellipse cx="273.5" cy="30.5" rx="13.5" ry="14.5" fill="#D9D9D9"/>
<ellipse cx="273.5" cy="30.5" rx="13.5" ry="14.5" fill="#5F5F5F"/>
<ellipse cx="322.5" cy="30.5" rx="13.5" ry="14.5" fill="#D9D9D9"/>
<ellipse cx="322.5" cy="30.5" rx="13.5" ry="14.5" fill="#B2B2B2"/>
<ellipse cx="371.5" cy="30.5" rx="13.5" ry="14.5" fill="#D9D9D9"/>
<ellipse cx="371.5" cy="30.5" rx="13.5" ry="14.5" fill="#F8F8F8"/>
<ellipse cx="420.5" cy="30.5" rx="13.5" ry="14.5" fill="#D9D9D9"/>
<ellipse cx="420.5" cy="30.5" rx="13.5" ry="14.5" fill="#D9D9D9"/>
<ellipse cx="28.5" cy="66.5" rx="13.5" ry="14.5" fill="#D9D9D9"/>
<ellipse cx="28.5" cy="66.5" rx="13.5" ry="14.5" fill="#D9D9D9"/>
<ellipse cx="77.5" cy="66.5" rx="13.5" ry="14.5" fill="#D9D9D9"/>
<ellipse cx="77.5" cy="66.5" rx="13.5" ry="14.5" fill="#D9D9D9"/>
<ellipse cx="126.5" cy="66.5" rx="13.5" ry="14.5" fill="#D9D9D9"/>
<ellipse cx="126.5" cy="66.5" rx="13.5" ry="14.5" fill="#D9D9D9"/>
<ellipse cx="175.5" cy="66.5" rx="13.5" ry="14.5" fill="#D9D9D9"/>
<ellipse cx="175.5" cy="66.5" rx="13.5" ry="14.5" fill="#D9D9D9"/>
<ellipse cx="224.5" cy="66.5" rx="13.5" ry="14.5" fill="#D9D9D9"/>
<ellipse cx="224.5" cy="66.5" rx="13.5" ry="14.5" fill="#D9D9D9"/>
</svg>
